<?xml version="1.0" standalone="no"?>
<!DOCTYPE svg PUBLIC "-//W3C//DTD SVG 20010904//EN"
 "http://www.w3.org/TR/2001/REC-SVG-20010904/DTD/svg10.dtd">
<svg version="1.0" xmlns="http://www.w3.org/2000/svg"
 width="258.000000pt" height="258.000000pt" viewBox="0 0 258.000000 258.000000"
 preserveAspectRatio="xMidYMid meet">
<metadata>
Created by potrace 1.14, written by Peter Selinger 2001-2017
</metadata>
<g transform="translate(0.000000,258.000000) scale(0.100000,-0.100000)"
fill="#000000" stroke="none">
<path d="M698 2145 c-2 -2 -71 -5 -154 -8 -285 -11 -387 -56 -455 -202 -56
-121 -73 -271 -73 -635 0 -261 9 -421 28 -513 41 -196 143 -295 321 -312 379
-37 1272 -42 1795 -9 36 2 96 13 134 25 121 36 200 137 230 294 36 184 42 757
11 984 -14 96 -51 185 -101 241 -73 80 -164 114 -339 126 -93 6 -1391 14
-1397 9z"/>
</g>
</svg>
